<?xml version="1.0" encoding="UTF-8"?>
<svg id="Layer_2" data-name="Layer 2" xmlns="http://www.w3.org/2000/svg" viewBox="0 0 512 512">
  <defs>
    <style>
      .cls-1 {
        fill: #ede8d0;
        stroke-width: 0px;
      }
    </style>
  </defs>
  <g id="Layer_1-2" data-name="Layer 1">
    <path class="cls-1" d="M256,0C114.62,0,0,114.62,0,256s114.62,256,256,256,256-114.62,256-256C511.85,114.68,397.32.15,256,0ZM341.33,277.33h-64v64c0,11.78-9.55,21.33-21.33,21.33s-21.33-9.55-21.33-21.33v-64h-64c-11.78,0-21.33-9.55-21.33-21.33s9.55-21.33,21.33-21.33h64v-64c0-11.78,9.55-21.33,21.33-21.33s21.33,9.55,21.33,21.33v64h64c11.78,0,21.33,9.55,21.33,21.33s-9.55,21.33-21.33,21.33Z"/>
  </g>
</svg>