<?xml version="1.0" encoding="UTF-8"?>
<svg id="Layer_2" data-name="Layer 2" xmlns="http://www.w3.org/2000/svg" viewBox="0 0 512 511.9">
  <defs>
    <style>
      .cls-1 {
        fill: #ede8d0;
        stroke-width: 0px;
      }
    </style>
  </defs>
  <g id="Layer_1-2" data-name="Layer 1">
    <g>
      <path class="cls-1" d="M405.25,0H106.65C47.75,0,0,47.75,0,106.64h0c0,35.34,28.65,63.99,63.99,63.99h383.92c33.69.41,61.8-25.61,63.99-59.23C514.46,52.5,468.8,2.67,409.9.1c-1.55-.07-3.1-.1-4.65-.1Z"/>
      <path class="cls-1" d="M469.24,213.29H42.66c-11.78,0-21.33,9.55-21.33,21.33v170.63c.07,58.87,47.78,106.57,106.64,106.65h255.95c58.87-.07,106.57-47.78,106.65-106.65v-170.63c0-11.78-9.55-21.33-21.33-21.33ZM319.94,319.94h-127.97c-11.78,0-21.33-9.55-21.33-21.33s9.55-21.33,21.33-21.33h127.97c11.78,0,21.33,9.55,21.33,21.33s-9.55,21.33-21.33,21.33Z"/>
    </g>
  </g>
</svg>