<?xml version="1.0" encoding="UTF-8"?>
<svg id="Layer_2" data-name="Layer 2" xmlns="http://www.w3.org/2000/svg" viewBox="0 0 512 469.33">
  <defs>
    <style>
      .cls-1 {
        fill: #ede8d0;
        stroke-width: 0px;
      }
    </style>
  </defs>
  <g id="Layer_1-2" data-name="Layer 1">
    <path class="cls-1" d="M509.85,128H0v-21.33C0,47.85,47.85,0,106.67,0h53.93c9.88,0,19.78,2.33,28.61,6.74l67.33,33.66c2.94,1.47,6.25,2.24,9.54,2.24h139.26c51.5,0,94.59,36.71,104.51,85.33v.02ZM512,170.67v192c0,58.82-47.85,106.67-106.67,106.67H106.67c-58.82,0-106.67-47.85-106.67-106.67v-192h512ZM335.08,343.62c-8.34-8.34-21.82-8.34-30.17,0l-27.58,27.58v-136.53c-.13-27.9-42.56-27.88-42.67,0v136.53l-27.58-27.58c-19.82-19.65-49.81,10.37-30.17,30.17l34.43,34.41c24.62,24.62,64.7,24.62,89.32,0l34.41-34.41c8.34-8.34,8.34-21.82,0-30.17Z"/>
  </g>
</svg>