<?xml version="1.0" encoding="UTF-8"?>
<svg id="Layer_2" data-name="Layer 2" xmlns="http://www.w3.org/2000/svg" viewBox="0 0 466 508.39">
  <defs>
    <style>
      .cls-1 {
        fill: #ede8d0;
        stroke-width: 0px;
      }
    </style>
  </defs>
  <g id="Layer_1-2" data-name="Layer 1">
    <path class="cls-1" d="M338.92,84.73v-42.37c0-23.36-19-42.37-42.37-42.37h-127.1c-23.36,0-42.37,19-42.37,42.37v42.37H0v42.37h34.82l36.07,324.75c3.58,32.22,30.74,56.54,63.17,56.54h197.08c32.43,0,59.59-24.3,63.15-56.54l36.07-324.75h35.63v-42.37h-127.1.02ZM169.46,42.37h127.1v42.37h-127.1v-42.37ZM316.83,350.43l-29.95,29.95-53.87-53.87-53.87,53.87-29.95-29.95,53.87-53.87-53.87-53.87,29.95-29.95,53.87,53.87,53.87-53.87,29.95,29.95-53.87,53.87s53.87,53.87,53.87,53.87Z"/>
  </g>
</svg>