<?xml version="1.0" encoding="UTF-8"?>
<svg id="Layer_2" data-name="Layer 2" xmlns="http://www.w3.org/2000/svg" viewBox="0 0 512 512">
  <defs>
    <style>
      .cls-1 {
        fill: #ede8d0;
        stroke-width: 0px;
      }
    </style>
  </defs>
  <g id="Layer_1-2" data-name="Layer 1">
    <path class="cls-1" d="M405.33,0H106.67C47.79.07.07,47.79,0,106.67v298.67c.07,58.88,47.79,106.6,106.67,106.67h298.67c58.88-.07,106.6-47.79,106.67-106.67V106.67c-.07-58.88-47.79-106.6-106.67-106.67ZM426.67,172.35l-197.42,197.42c-16.66,16.67-43.67,16.67-60.34.01h-.01s-83.56-83.55-83.56-83.55c-8.35-8.35-8.35-21.88,0-30.23s21.88-8.35,30.23,0l83.54,83.54,197.44-197.42c8.35-8.32,21.86-8.29,30.18.05,8.32,8.35,8.29,21.86-.05,30.18Z"/>
  </g>
</svg>