<?xml version="1.0" encoding="UTF-8"?>
<svg id="Layer_2" data-name="Layer 2" xmlns="http://www.w3.org/2000/svg" viewBox="0 0 170.81 170.81">
  <defs>
    <style>
      .cls-1 {
        fill: #ede8d0;
      }

      .cls-1, .cls-2 {
        stroke-width: 0px;
      }

      .cls-2 {
        fill: #567c8d;
      }
    </style>
  </defs>
  <g id="Layer_1-2" data-name="Layer 1">
    <rect class="cls-2" width="170.81" height="170.81" rx="34.89" ry="34.89"/>
    <g>
      <path class="cls-1" d="M42.94,45.45h6.31v-1.58c0-.93.64-1.58,1.58-1.58h10.92v6.31h-12.49v34.56h-6.31v-34.56h-12.55v-6.31h10.98c.93,0,1.58.64,1.58,1.58v1.58Z"/>
      <path class="cls-1" d="M53.85,76.86c-.93,0-1.58-.64-1.58-1.58v-15.7c0-.93.64-1.58,1.58-1.58h1.58v-1.58c0-.93.64-1.58,1.58-1.58h1.58v-1.52c0-.93.64-1.58,1.58-1.58h9.46c.93,0,1.58.64,1.58,1.58v1.52h1.58c.93,0,1.58.64,1.58,1.58v1.58h1.58c.93,0,1.58.64,1.58,1.58v15.7c0,.93-.64,1.58-1.58,1.58h-1.58v1.58c0,.93-.64,1.58-1.58,1.58h-1.58v1.58c0,.93-.64,1.58-1.58,1.58h-9.46c-.93,0-1.58-.64-1.58-1.58v-1.58h-1.58c-.93,0-1.58-.64-1.58-1.58v-1.58h-1.58ZM58.58,73.71h1.58c.93,0,1.58.64,1.58,1.58v1.58h6.31v-1.58c0-.93.64-1.58,1.58-1.58h1.58v-12.55h-1.58c-.93,0-1.58-.64-1.58-1.58v-1.64h-6.31v1.64c0,.93-.64,1.58-1.58,1.58h-1.58v12.55Z"/>
      <path class="cls-1" d="M83.74,45.45v-1.58c0-.93.64-1.58,1.58-1.58h15.76c.93,0,1.58.64,1.58,1.58v1.58h1.52c.93,0,1.58.64,1.58,1.58v1.58h1.58c.93,0,1.58.64,1.58,1.58v1.58h1.58c.93,0,1.58.64,1.58,1.58v18.8c0,.93-.64,1.58-1.58,1.58h-1.58v1.58c0,.93-.64,1.58-1.58,1.58h-1.58v1.58c0,.93-.64,1.58-1.58,1.58h-1.52v1.58c0,.93-.64,1.58-1.58,1.58h-15.76c-.93,0-1.58-.64-1.58-1.58v-1.58h-1.52c-.93,0-1.58-.64-1.58-1.58v-31.41c0-.93.64-1.58,1.58-1.58h1.52ZM86.89,76.86h12.61v-1.58c0-.93.64-1.58,1.58-1.58h1.58v-1.58c0-.93.64-1.58,1.58-1.58h1.58v-15.65h-1.58c-.93,0-1.58-.64-1.58-1.58v-1.58h-1.58c-.93,0-1.58-.64-1.58-1.58v-1.58h-12.61v28.26Z"/>
      <path class="cls-1" d="M116.78,76.86c-.93,0-1.58-.64-1.58-1.58v-15.7c0-.93.64-1.58,1.58-1.58h1.58v-1.58c0-.93.64-1.58,1.58-1.58h1.58v-1.52c0-.93.64-1.58,1.58-1.58h9.46c.93,0,1.58.64,1.58,1.58v1.52h1.58c.93,0,1.58.64,1.58,1.58v1.58h1.58c.93,0,1.58.64,1.58,1.58v15.7c0,.93-.64,1.58-1.58,1.58h-1.58v1.58c0,.93-.64,1.58-1.58,1.58h-1.58v1.58c0,.93-.64,1.58-1.58,1.58h-9.46c-.93,0-1.58-.64-1.58-1.58v-1.58h-1.58c-.93,0-1.58-.64-1.58-1.58v-1.58h-1.58ZM121.51,73.71h1.58c.93,0,1.58.64,1.58,1.58v1.58h6.31v-1.58c0-.93.64-1.58,1.58-1.58h1.58v-12.55h-1.58c-.93,0-1.58-.64-1.58-1.58v-1.64h-6.31v1.64c0,.93-.64,1.58-1.58,1.58h-1.58v12.55Z"/>
      <path class="cls-1" d="M43.23,123.78v-36.14h6.31v34.56h18.86v6.31h-20.43c-.93,0-1.58-.64-1.58-1.58v-1.58h-1.58c-.93,0-1.58-.64-1.58-1.58Z"/>
      <path class="cls-1" d="M72.71,87.65h6.31v6.3h-6.31v-6.3ZM72.71,97.05h6.31v31.47h-6.31v-31.47Z"/>
      <path class="cls-1" d="M85.32,101.78c0-.93.64-1.58,1.58-1.58h1.58v-1.52c0-.93.64-1.58,1.58-1.58h9.46c.93,0,1.58.64,1.58,1.58v1.52h1.58c.93,0,1.58.64,1.58,1.58v1.58h1.52c.93,0,1.58.64,1.58,1.58v4.67h-6.25v-3.15h-1.58c-.93,0-1.58-.64-1.58-1.58v-1.58h-9.46v3.21h1.58c.93,0,1.58.64,1.58,1.58v1.58h4.73c.93,0,1.58.64,1.58,1.58v1.58h4.73c.93,0,1.58.64,1.58,1.58v1.58h1.52c.93,0,1.58.64,1.58,1.58v3.09c0,.93-.64,1.58-1.58,1.58h-1.52v1.58c0,.93-.64,1.58-1.58,1.58h-1.58v1.58c0,.93-.64,1.58-1.58,1.58h-9.46c-.93,0-1.58-.64-1.58-1.58v-1.58h-1.58c-.93,0-1.58-.64-1.58-1.58v-1.58h-1.52c-.93,0-1.58-.64-1.58-1.58v-4.73h6.25v3.15h1.58c.93,0,1.58.64,1.58,1.58v1.58h9.46v-3.15h-1.58c-.93,0-1.58-.64-1.58-1.58v-1.52h-4.73c-.93,0-1.58-.64-1.58-1.58v-1.58h-4.73c-.93,0-1.58-.64-1.58-1.58v-1.58h-1.58c-.93,0-1.58-.64-1.58-1.58v-3.15c0-.93.64-1.58,1.58-1.58h1.58v-1.58Z"/>
      <path class="cls-1" d="M119.93,103.35v-1.58c0-.93.64-1.58,1.58-1.58h11.03v6.31h-9.46v15.7h3.15v-3.15h6.31v4.73c0,.93-.64,1.58-1.58,1.58h-1.58v1.58c0,.93-.64,1.58-1.58,1.58h-6.3c-.93,0-1.58-.64-1.58-1.58v-1.58h-1.58c-.93,0-1.58-.64-1.58-1.58v-17.28h-6.31v-6.31h3.15v-1.52c0-.93.64-1.58,1.58-1.58h1.58v-6.3h6.31v4.73c0,.93-.64,1.58-1.58,1.58h-1.58v1.52c0,.93-.64,1.58-1.58,1.58h-1.58v3.15h3.15Z"/>
    </g>
  </g>
</svg>