<?xml version="1.0" encoding="UTF-8"?>
<svg id="Layer_2" data-name="Layer 2" xmlns="http://www.w3.org/2000/svg" viewBox="0 0 110.04 86.22">
  <defs>
    <style>
      .cls-1 {
        fill: #ede8d0;
        stroke-width: 0px;
      }
    </style>
  </defs>
  <g id="Layer_1-2" data-name="Layer 1">
    <g>
      <path class="cls-1" d="M12.55,3.15h6.31v-1.58c0-.93.64-1.58,1.58-1.58h10.92v6.31h-12.49v34.56h-6.31V6.31H0V0h10.98c.93,0,1.58.64,1.58,1.58v1.58Z"/>
      <path class="cls-1" d="M23.47,34.56c-.93,0-1.58-.64-1.58-1.58v-15.7c0-.93.64-1.58,1.58-1.58h1.58v-1.58c0-.93.64-1.58,1.58-1.58h1.58v-1.52c0-.93.64-1.58,1.58-1.58h9.46c.93,0,1.58.64,1.58,1.58v1.52h1.58c.93,0,1.58.64,1.58,1.58v1.58h1.58c.93,0,1.58.64,1.58,1.58v15.7c0,.93-.64,1.58-1.58,1.58h-1.58v1.58c0,.93-.64,1.58-1.58,1.58h-1.58v1.58c0,.93-.64,1.58-1.58,1.58h-9.46c-.93,0-1.58-.64-1.58-1.58v-1.58h-1.58c-.93,0-1.58-.64-1.58-1.58v-1.58h-1.58ZM28.2,31.41h1.58c.93,0,1.58.64,1.58,1.58v1.58h6.31v-1.58c0-.93.64-1.58,1.58-1.58h1.58v-12.55h-1.58c-.93,0-1.58-.64-1.58-1.58v-1.64h-6.31v1.64c0,.93-.64,1.58-1.58,1.58h-1.58v12.55Z"/>
      <path class="cls-1" d="M53.36,3.15v-1.58c0-.93.64-1.58,1.58-1.58h15.76c.93,0,1.58.64,1.58,1.58v1.58h1.52c.93,0,1.58.64,1.58,1.58v1.58h1.58c.93,0,1.58.64,1.58,1.58v1.58h1.58c.93,0,1.58.64,1.58,1.58v18.8c0,.93-.64,1.58-1.58,1.58h-1.58v1.58c0,.93-.64,1.58-1.58,1.58h-1.58v1.58c0,.93-.64,1.58-1.58,1.58h-1.52v1.58c0,.93-.64,1.58-1.58,1.58h-15.76c-.93,0-1.58-.64-1.58-1.58v-1.58h-1.52c-.93,0-1.58-.64-1.58-1.58V4.73c0-.93.64-1.58,1.58-1.58h1.52ZM56.51,34.56h12.61v-1.58c0-.93.64-1.58,1.58-1.58h1.58v-1.58c0-.93.64-1.58,1.58-1.58h1.58v-15.65h-1.58c-.93,0-1.58-.64-1.58-1.58v-1.58h-1.58c-.93,0-1.58-.64-1.58-1.58v-1.58h-12.61v28.26Z"/>
      <path class="cls-1" d="M86.4,34.56c-.93,0-1.58-.64-1.58-1.58v-15.7c0-.93.64-1.58,1.58-1.58h1.58v-1.58c0-.93.64-1.58,1.58-1.58h1.58v-1.52c0-.93.64-1.58,1.58-1.58h9.46c.93,0,1.58.64,1.58,1.58v1.52h1.58c.93,0,1.58.64,1.58,1.58v1.58h1.58c.93,0,1.58.64,1.58,1.58v15.7c0,.93-.64,1.58-1.58,1.58h-1.58v1.58c0,.93-.64,1.58-1.58,1.58h-1.58v1.58c0,.93-.64,1.58-1.58,1.58h-9.46c-.93,0-1.58-.64-1.58-1.58v-1.58h-1.58c-.93,0-1.58-.64-1.58-1.58v-1.58h-1.58ZM91.13,31.41h1.58c.93,0,1.58.64,1.58,1.58v1.58h6.31v-1.58c0-.93.64-1.58,1.58-1.58h1.58v-12.55h-1.58c-.93,0-1.58-.64-1.58-1.58v-1.64h-6.31v1.64c0,.93-.64,1.58-1.58,1.58h-1.58v12.55Z"/>
      <path class="cls-1" d="M12.84,81.49v-36.14h6.31v34.56h18.86v6.31h-20.43c-.93,0-1.58-.64-1.58-1.58v-1.58h-1.58c-.93,0-1.58-.64-1.58-1.58Z"/>
      <path class="cls-1" d="M42.32,45.35h6.31v6.3h-6.31v-6.3ZM42.32,54.75h6.31v31.47h-6.31v-31.47Z"/>
      <path class="cls-1" d="M54.93,59.48c0-.93.64-1.58,1.58-1.58h1.58v-1.52c0-.93.64-1.58,1.58-1.58h9.46c.93,0,1.58.64,1.58,1.58v1.52h1.58c.93,0,1.58.64,1.58,1.58v1.58h1.52c.93,0,1.58.64,1.58,1.58v4.67h-6.25v-3.15h-1.58c-.93,0-1.58-.64-1.58-1.58v-1.58h-9.46v3.21h1.58c.93,0,1.58.64,1.58,1.58v1.58h4.73c.93,0,1.58.64,1.58,1.58v1.58h4.73c.93,0,1.58.64,1.58,1.58v1.58h1.52c.93,0,1.58.64,1.58,1.58v3.09c0,.93-.64,1.58-1.58,1.58h-1.52v1.58c0,.93-.64,1.58-1.58,1.58h-1.58v1.58c0,.93-.64,1.58-1.58,1.58h-9.46c-.93,0-1.58-.64-1.58-1.58v-1.58h-1.58c-.93,0-1.58-.64-1.58-1.58v-1.58h-1.52c-.93,0-1.58-.64-1.58-1.58v-4.73h6.25v3.15h1.58c.93,0,1.58.64,1.58,1.58v1.58h9.46v-3.15h-1.58c-.93,0-1.58-.64-1.58-1.58v-1.52h-4.73c-.93,0-1.58-.64-1.58-1.58v-1.58h-4.73c-.93,0-1.58-.64-1.58-1.58v-1.58h-1.58c-.93,0-1.58-.64-1.58-1.58v-3.15c0-.93.64-1.58,1.58-1.58h1.58v-1.58Z"/>
      <path class="cls-1" d="M89.55,61.05v-1.58c0-.93.64-1.58,1.58-1.58h11.03v6.31h-9.46v15.7h3.15v-3.15h6.31v4.73c0,.93-.64,1.58-1.58,1.58h-1.58v1.58c0,.93-.64,1.58-1.58,1.58h-6.3c-.93,0-1.58-.64-1.58-1.58v-1.58h-1.58c-.93,0-1.58-.64-1.58-1.58v-17.28h-6.31v-6.31h3.15v-1.52c0-.93.64-1.58,1.58-1.58h1.58v-6.3h6.31v4.73c0,.93-.64,1.58-1.58,1.58h-1.58v1.52c0,.93-.64,1.58-1.58,1.58h-1.58v3.15h3.15Z"/>
    </g>
  </g>
</svg>